<?xml version="1.0" encoding="utf-8"?>
<!-- Generator: Adobe Illustrator 24.1.2, SVG Export Plug-In . SVG Version: 6.00 Build 0)  -->
<svg version="1.1" id="Shape_1_1_" xmlns="http://www.w3.org/2000/svg" xmlns:xlink="http://www.w3.org/1999/xlink" x="0px" y="0px"
	 viewBox="0 0 453.54 340.16" style="enable-background:new 0 0 453.54 340.16;" xml:space="preserve">
<g id="Shape_1">
	<g>
		<path d="M53.34,123.26l8.63-14.28c0,0,29.14,13.56,54.11,12.28c23.63-1.21,43.16-17.26,43.16-17.26L138,82.09l26.89-25.9
			l16.6,16.27l42.16-42.49l83,82.67l-41.5,41.17l7.3,7.97c0,0,6.17-5.09,7.3-7.3c1.13-2.21,0.86-11.9,9.96-17.93
			c13.6-9.01,30.21,2.99,30.21,2.99c11.09,1.44,13.28,1.66,13.28,1.66c-23.24-84.13-73.86-106.59-84.66-113.21
			C237.76,21.36,129.37-30.65,48.7,67.48c-80.03,97.34-12.28,191.23-12.28,191.23C90.86,158.45,53.34,123.26,53.34,123.26z
			 M276.77,217.87c0,0-9.93,18.01-24.9,24.57c-14.57,6.39-34.2,1.33-34.2,1.33c-1.28,13.31,10.62,28.22,10.62,28.22l-17.93,12.62
			c0,0-13.26-17.89-49.13-13.61c-39.34,4.69-85.32,30.21-85.32,30.21s54.08,51.93,147.74,27.22c54.19-14.3,94.95-85.32,94.95-85.32
			s-12.67-4.05-23.57-10.96C284.71,225.62,276.77,217.87,276.77,217.87z M443.43,214.89c-11.13-32.91,5.64-85.65,5.64-85.65
			c1.49-10.67-24.9,0.66-24.9,0.66c-2.83,6.93-4.98,21.58-4.98,21.58s-8.52-13.03-23.24-13.61c-21.61-0.86-52.12,10.62-52.12,10.62
			c-9.14-6.68-23.24-4.98-23.24-4.98l-14.61-5.98c-22.42-2.37-20.58,19.59-20.58,19.59l-13.61,12.62l-13.94-15.6l39.84-41.5
			l-74.37-74.7l-41.5,41.5l-16.6-15.27l-19.26,17.93L166.55,104c0,0-18.92,18.09-46.81,20.92c-26.89,2.72-55.11-10.29-55.11-10.29
			l-6.31,10.29c0,0,21.75,15.17,6.64,75.03C49.79,260.04,1.55,333.74,1.55,333.74s79.21-48.49,138.44-63.08
			c57.24-14.1,72.04,8.3,72.04,8.3l11.29-7.3c-8.14-9.01-11.62-34.86-11.62-34.86s22.31,8.72,38.84,1.99
			c15.65-6.37,25.56-28.22,25.56-28.22c17.42,20.54,45.99,30.92,46.48,30.88c0.49-0.04,25.07,6.35,23.24-15.6
			c-1.83-21.95-26.89-14.94-26.89-14.94s-33.02-17.22-26.23-32.87c8.33-19.16,47.81-2.32,47.81-2.32l6.64-4.98
			c0,0-5.43,18.79,2.66,35.19c10.64,21.57,36.7,41.68,49.8,36.19c23.07-9.67,12.95-40.5,12.95-40.5l5.98-20.25
			c-1.5,29.51,6.31,55.11,6.31,55.11c2.52,3.04,9.47,6.68,15.94,4.32C460.95,233.4,443.43,214.89,443.43,214.89z M203.07,157.12
			l5.98,6.97c0,0-18.81,17.15-18.26,38.51c0,0-3.87-34.26,8.96-71.71c0,0,4.43-17.66-24.24-1.33c0,0-5.53,4.25-8.3,26.89
			c-2.77,22.64,3.6,72.97,8.63,80.01c5.04,7.04,12.56,13.54,22.24,0c0,0-0.22,5.57,4.65,21.58c0,0-25.15-7.94-54.11-1.66
			C107.17,265.38,55,289.92,55,289.92l80.67-79.68c0,0,9.29,4.36,15.94-6.64c6-9.93-2.99-18.59-2.99-18.59s-9.69-5.4-17.6,0.33
			c-6.19,4.49-6.97,14.94-6.97,14.94l-78.68,81.34c0,0,23.69-47.32,31.87-83c8.41-36.68,1-65.4,1-65.4s33.23,9.46,59.09,2.32
			c27.06-7.47,46.81-30.88,46.81-30.88l-20.92-20.25l2.66-2.32l15.94,15.27l41.17-41.17l56.11,57.77l-36.52,36.19
			C242.58,150.15,216.63,139.91,203.07,157.12z M243.58,221.86c-15.27,3.6-25.73-5.75-27.22-20.25
			c-1.5-14.5,15.94-30.54,15.94-30.54C260.34,185.59,258.85,218.26,243.58,221.86z M387.33,208.25
			c-0.65,10.94-3.98,10.96-3.98,10.96s-30.34-23.96-15.94-44.49C370.53,170.27,388.77,184.07,387.33,208.25z M400.61,178.04
			c0,0-10.63-14.73-23.9-18.92c-7.7-2.44-20.92,3.98-20.92,3.98l-1.33-3.65c0,0,45.1-15.04,48.14,1.99
			C402.6,161.44,403.55,173.28,400.61,178.04z"/>
	</g>
</g>
</svg>
